<svg xmlns="http://www.w3.org/2000/svg" xmlns:xlink="http://www.w3.org/1999/xlink" width="118" height="123" viewBox="0 0 118 123">
    <defs>
        <path id="a" d="M0 .134h117.804v122.833H0z"/>
    </defs>
    <g fill="none" fill-rule="evenodd" opacity=".941">
        <g>
            <mask id="b" fill="#fff">
                <use xlink:href="#a"/>
            </mask>
            <path fill="#E84A5F" d="M101.765 88.794c-1.732 1.26-2.992 2.992-3.622 5.04l-3.779 10.708c-.787 2.362-2.992 3.937-5.51 3.937l-11.338.315c-2.047 0-4.094.63-5.826 1.89l-9.29 6.456a5.923 5.923 0 0 1-6.77 0l-9.29-6.457a9.892 9.892 0 0 0-5.827-1.89l-11.494-.314c-2.52 0-4.724-1.732-5.511-3.937l-3.779-10.709c-.63-2.047-1.89-3.78-3.622-5.04l-8.974-6.77c-2.047-1.575-2.835-4.095-2.047-6.457L8.392 64.7c.63-2.047.63-4.252 0-6.142L5.086 47.692c-.788-2.362.157-5.04 2.046-6.456l8.975-6.772c1.733-1.26 2.992-2.992 3.622-5.04l3.779-10.708c.787-2.362 2.992-3.937 5.51-3.937l11.338-.157c2.047 0 4.094-.63 5.826-1.89l9.29-6.456c.945-.63 2.204-1.103 3.464-1.103 1.26 0 2.362.315 3.464 1.103l9.29 6.456a9.893 9.893 0 0 0 5.826 1.89l11.337.157c2.52 0 4.724 1.733 5.511 3.937l3.78 10.709c.629 2.047 1.889 3.78 3.62 5.04l8.976 6.77c2.047 1.575 2.834 4.095 2.047 6.457l-3.15 10.709c-.63 2.047-.63 4.252 0 6.141l3.307 10.866c.788 2.362-.157 5.04-2.047 6.457l-9.132 6.929zm2.834 3.78l8.975-6.772c3.622-2.677 5.039-7.402 3.779-11.653l-3.307-10.866a6.476 6.476 0 0 1 0-3.465l3.307-10.866c1.26-4.252-.157-8.976-3.779-11.653l-8.975-6.772c-.945-.787-1.575-1.732-2.047-2.835l-3.78-10.708c-1.416-4.252-5.353-7.087-9.919-7.244l-11.18-.158c-1.26 0-2.361-.314-3.306-1.102l-9.29-6.457c-3.622-2.52-8.66-2.52-12.282 0l-9.29 6.457c-.944.63-2.047 1.102-3.306 1.102l-11.337.158c-4.41.157-8.346 2.992-9.92 7.244l-3.78 10.708c-.314 1.103-1.101 2.048-2.046 2.835L4.14 37.299C.677 39.976-.898 44.7.519 48.952l3.307 10.866a6.471 6.471 0 0 1 0 3.465L.519 74.149c-1.26 4.251.158 8.976 3.779 11.653l8.975 6.771c.945.788 1.575 1.733 2.047 2.835l3.78 10.709c1.416 4.251 5.353 7.086 9.919 7.244l11.337.157c1.26 0 2.362.315 3.307 1.102l9.29 6.457c1.732 1.26 3.936 1.89 6.14 1.89 2.205 0 4.252-.63 6.141-1.89l9.29-6.457c.945-.63 2.047-1.102 3.307-1.102l11.337-.157c4.409-.158 8.345-2.993 9.92-7.244l3.779-10.709c0-1.102.787-2.047 1.732-2.835z" mask="url(#b)"/>
        </g>
        <path fill="#00ADB5" d="M48.994 19.633h.47c1.408-.294 2.815-.588 4.38-.735 1.252-.148 2.19-1.325 2.034-2.502-.157-1.178-1.408-2.06-2.66-1.913-1.564.147-3.285.441-4.85.735-1.25.295-2.033 1.472-1.72 2.65.313 1.177 1.251 1.765 2.346 1.765M39.207 99.74c-1.192-.638-2.533-1.436-3.576-2.233-1.043-.639-2.384-.479-3.13.638-.744 1.117-.447 2.552.596 3.35 1.342.957 2.683 1.755 4.024 2.553.298.16.745.319 1.043.319.745 0 1.64-.479 1.937-1.277.597-1.276.15-2.712-.894-3.35M34.439 26.867c.447 0 .894-.166 1.192-.33 1.192-.827 2.384-1.653 3.576-2.313 1.043-.66 1.49-2.148.894-3.304-.596-1.156-1.937-1.651-2.98-.99-1.341.825-2.682 1.65-4.023 2.642-1.043.826-1.342 2.312-.596 3.469.447.495 1.192.826 1.937.826M53.842 103.116c-1.407-.15-2.971-.45-4.379-.75-1.251-.3-2.502.45-2.815 1.65-.313 1.2.47 2.4 1.72 2.7 1.564.3 3.284.6 4.848.75h.313c1.095 0 2.19-.9 2.346-1.95.157-1.05-.626-2.25-2.033-2.4M17.964 74.033c-.305-1.294-1.68-1.94-2.902-1.617-1.222.323-1.834 1.779-1.528 3.072.458 1.617 1.07 3.235 1.68 4.69.306.97 1.223 1.455 2.14 1.455.305 0 .61 0 .916-.161 1.222-.485 1.68-1.94 1.222-3.234-.61-1.294-1.069-2.75-1.528-4.205M15.207 50.476c.153 0 .46.157.612.157.918 0 1.837-.629 2.143-1.73.459-1.415.918-2.83 1.53-4.245.46-1.258 0-2.516-1.224-3.145-1.224-.472-2.449 0-3.061 1.258-.612 1.572-1.224 3.145-1.683 4.717-.306 1.258.459 2.516 1.683 2.988M64.156 18.898c1.408.147 2.972.441 4.38.735h.47c1.094 0 2.033-.735 2.346-1.765.313-1.178-.47-2.355-1.72-2.65-1.565-.294-3.286-.588-4.85-.735-1.252-.147-2.503.735-2.66 1.913-.156 1.177.782 2.354 2.034 2.502M24.732 86.72c-.742-1.09-2.228-1.245-3.12-.467-1.04.778-1.189 2.178-.446 3.268.892 1.245 1.932 2.49 2.972 3.734.446.467 1.04.778 1.635.778.594 0 1.04-.155 1.486-.622a2.49 2.49 0 0 0 .148-3.268c-1.04-1.089-1.932-2.334-2.675-3.423M21.604 36.732c.443.312.885.468 1.327.468.737 0 1.327-.312 1.769-.935.884-1.092 1.769-2.338 2.653-3.43.885-.935.737-2.494-.147-3.273-.885-.936-2.359-.78-3.096.155-1.031 1.248-2.063 2.495-2.948 3.742-.737 1.09-.59 2.494.442 3.273M14.137 66.133c1.376 0 2.58-1.26 2.408-2.522v-4.256c0-1.26-1.032-2.364-2.408-2.522-1.375 0-2.58.946-2.751 2.207V63.927l2.58-.158-2.58.158c.172 1.26 1.204 2.206 2.751 2.206M99.153 48.874c.306.96 1.222 1.76 2.14 1.76.152 0 .457 0 .61-.16 1.222-.32 1.833-1.76 1.528-3.04-.458-1.6-1.07-3.199-1.68-4.638-.459-1.28-1.834-1.76-3.056-1.28s-1.68 1.92-1.222 3.199c.763 1.28 1.222 2.72 1.68 4.159M68.536 102.364c-1.408.291-2.816.583-4.38.729-1.251.146-2.19 1.166-2.034 2.478.157 1.167 1.095 1.896 2.347 1.896h.313c1.564-.146 3.285-.438 4.85-.73 1.25-.29 2.033-1.457 1.72-2.624a2.32 2.32 0 0 0-2.816-1.75M106.614 58.979c0-1.218-1.204-2.283-2.751-2.131-1.376 0-2.58 1.218-2.408 2.435v4.415c0 1.218 1.032 2.283 2.408 2.435h.171c1.376 0 2.58-.913 2.58-2.13v-5.024zM95.398 86.253c-1.038-.778-2.372-.623-3.114.467-.89 1.245-1.78 2.334-2.669 3.423-.89.934-.741 2.49.148 3.268a2.071 2.071 0 0 0 1.483.622c.594 0 1.186-.31 1.631-.778 1.038-1.245 2.076-2.49 2.966-3.734.741-.934.445-2.49-.445-3.268M101.903 72.414c-1.222-.318-2.444.318-2.903 1.59-.458 1.43-.916 2.861-1.528 4.292-.458 1.271 0 2.543 1.223 3.179.305.158.611.158.916.158.917 0 1.681-.476 2.14-1.43.61-1.59 1.222-3.18 1.68-4.769.305-1.271-.306-2.702-1.528-3.02M77.939 23.304a52.268 52.268 0 0 1 4.108 2.213c.493.316.821.316 1.315.316.82 0 1.642-.316 2.135-1.106.822-1.106.33-2.529-.657-3.32-1.478-.948-2.958-1.738-4.437-2.528-1.15-.632-2.629-.158-3.286 1.106-.986 1.265-.493 2.687.822 3.32M92.232 36.258c.446.628 1.04.942 1.783.942.446 0 .892-.157 1.338-.471 1.04-.786 1.189-2.2.446-3.298-.892-1.257-1.932-2.513-2.972-3.77-.892-.942-2.23-.942-3.12-.157a2.53 2.53 0 0 0-.15 3.298c.892 1.1 1.784 2.199 2.675 3.456M81.444 97.482c-1.206.82-2.412 1.64-3.618 2.295-1.055.656-1.507 2.131-1.055 3.279.453.819 1.206 1.31 1.96 1.31.301 0 .753-.163 1.055-.327 1.356-.82 2.713-1.64 4.07-2.623 1.055-.82 1.356-2.295.602-3.442-.602-.82-1.96-1.148-3.014-.492M65.33 49.6H53.705c-1.072 0-1.95.887-1.95 1.972v5.356c0 1.084.878 1.972 1.95 1.972h.524a1.588 1.588 0 0 1-.616-1.255V52.93a1.58 1.58 0 0 1 1.565-1.583h8.68a1.58 1.58 0 0 1 1.567 1.583v4.716c0 .51-.243.965-.617 1.255h.524c1.072 0 1.95-.888 1.95-1.972v-5.356c0-1.085-.878-1.972-1.95-1.972"/>
        <path fill="#E84A5F" d="M38.975 79.567c-1.66 0-2.937-1.448-2.724-3.079C37.774 64.817 47.842 55.8 60.035 55.8s22.26 9.017 23.784 20.688c.213 1.631-1.064 3.079-2.724 3.079h-42.12z"/>
        <path fill="#00ADB5" d="M84.414 84.733H35.656c-.824 0-1.498-.697-1.498-1.55 0-.852.674-1.55 1.498-1.55h48.758c.824 0 1.498.698 1.498 1.55 0 .853-.674 1.55-1.498 1.55"/>
        <path fill="#FFF" d="M61.07 58.9s15.2 2.51 18.632 18.6h-6.864s1.47-11.333-11.768-18.6"/>
        <path fill="#E84A5F" d="M46.879 37.2c-.421.78-.795 1.514-1.09 2.241-.294.724-.509 1.43-.576 2.082-.071.653-.005 1.223.176 1.744.097.263.216.508.366.774.208.366.41.732.605 1.12.387.77.75 1.587 1 2.514.245.917.361 1.995.126 3.032a5.35 5.35 0 0 1-1.424 2.587c-.172.156-.34.312-.511.46-.174.145-.362.268-.546.393-.357.26-.773.438-1.17.62.34-.829.71-1.57.944-2.305.232-.732.334-1.406.279-2.015-.006-.153-.047-.308-.063-.455-.03-.152-.073-.305-.103-.454-.05-.155-.107-.309-.15-.462a13.343 13.343 0 0 1-.184-.475c-.268-.643-.614-1.32-.966-2.026l-.536-1.075a6.241 6.241 0 0 1-.524-1.53 5.46 5.46 0 0 1 .35-3.151 6.448 6.448 0 0 1 1.689-2.292 7.237 7.237 0 0 1 1.093-.787 5.44 5.44 0 0 1 1.215-.54M61.37 28.933c-.421.78-.795 1.514-1.09 2.242-.294.723-.509 1.43-.576 2.081-.071.653-.005 1.223.177 1.744.096.264.215.509.365.774.208.367.411.732.606 1.12.386.77.749 1.587.998 2.514.246.917.363 1.995.127 3.032a5.35 5.35 0 0 1-1.423 2.587c-.173.157-.34.312-.512.46-.174.145-.362.268-.546.393-.357.26-.773.438-1.17.62.341-.828.71-1.57.944-2.304.232-.733.334-1.406.279-2.016-.006-.152-.047-.307-.063-.455-.03-.152-.073-.305-.103-.454-.05-.154-.107-.308-.15-.462a13.344 13.344 0 0 1-.184-.475c-.268-.643-.614-1.32-.966-2.025l-.536-1.076a6.219 6.219 0 0 1-.524-1.53 5.459 5.459 0 0 1 .35-3.15 6.445 6.445 0 0 1 1.69-2.292 7.21 7.21 0 0 1 1.093-.788 5.432 5.432 0 0 1 1.214-.54M74.826 37.2c-.421.78-.794 1.514-1.09 2.241-.294.724-.509 1.43-.576 2.082-.07.653-.005 1.223.177 1.744.096.263.215.509.366.774.207.367.41.732.605 1.12.386.77.749 1.587.998 2.514.246.917.363 1.995.127 3.032a5.35 5.35 0 0 1-1.423 2.587c-.173.156-.34.312-.512.46-.174.145-.362.268-.546.393-.357.26-.773.438-1.17.62.341-.829.71-1.57.944-2.305.232-.732.334-1.406.279-2.015-.006-.153-.047-.308-.063-.455-.03-.152-.072-.305-.103-.454-.05-.155-.107-.309-.15-.462a13.344 13.344 0 0 1-.184-.475c-.268-.643-.614-1.32-.966-2.026l-.536-1.075a6.219 6.219 0 0 1-.524-1.53 5.456 5.456 0 0 1 .35-3.151 6.444 6.444 0 0 1 1.69-2.292 7.237 7.237 0 0 1 1.093-.787 5.428 5.428 0 0 1 1.214-.54"/>
    </g>
</svg>
