<svg xmlns="http://www.w3.org/2000/svg" width="118" height="124" viewBox="0 0 118 124">
    <g fill="none" fill-rule="evenodd">
        <path fill="#00ADB5" d="M78.94 46.29c-2.004-4.254-5.417-7.283-10.144-9.001-4.73-1.72-9.203-1.624-13.296.285-4.063 1.895-7.115 5.18-9.07 9.766a1.575 1.575 0 0 0 .91 2.096l1.987.723a1.575 1.575 0 0 0 1.995-.883c1.444-3.529 3.54-5.894 6.41-7.232 2.845-1.328 5.882-1.372 9.283-.135 3.413 1.24 5.794 3.316 7.28 6.345 1.476 3.009 1.626 6.032.457 9.243-1.178 3.238-3.221 5.547-6.245 7.06-2.993 1.496-6.151 1.605-9.654.33l-.818-.297a1.574 1.574 0 0 0-2.018.942l-4.123 11.33c-.297.817.124 1.72.941 2.017l1.87.68a1.575 1.575 0 0 0 2.018-.94l3.019-8.297c3.798.823 7.509.421 11.052-1.2.054-.025.107-.053.158-.084 4.31-2.6 7.248-5.99 8.735-10.077 1.51-4.149 1.258-8.411-.747-12.67M51.474 85.178c-1.957-.669-3.524-.042-4.189 1.675-.666 1.718.106 3.143 2.064 3.812 1.957.668 3.523.042 4.189-1.676.665-1.718-.106-3.143-2.064-3.811"/>
        <path fill="#E84A5F" d="M101.765 89.54a9.809 9.809 0 0 0-3.622 5.082l-3.779 10.798a5.774 5.774 0 0 1-5.51 3.97l-11.338.318a9.837 9.837 0 0 0-5.826 1.905l-9.29 6.511a5.882 5.882 0 0 1-6.77 0l-9.29-6.51a9.837 9.837 0 0 0-5.827-1.906l-11.494-.318c-2.52 0-4.724-1.746-5.511-3.97l-3.779-10.798a9.81 9.81 0 0 0-3.622-5.082l-8.975-6.828c-2.046-1.588-2.834-4.13-2.046-6.511l3.306-10.957c.63-2.065.63-4.288 0-6.194L5.086 48.093c-.788-2.382.157-5.082 2.046-6.51l8.975-6.83a9.81 9.81 0 0 0 3.622-5.081l3.779-10.799a5.774 5.774 0 0 1 5.511-3.97l11.337-.158a9.838 9.838 0 0 0 5.826-1.906l9.29-6.51c.945-.636 2.204-1.113 3.464-1.113 1.26 0 2.362.318 3.464 1.112l9.29 6.511a9.838 9.838 0 0 0 5.826 1.906l11.337.158c2.52 0 4.724 1.747 5.511 3.97l3.779 10.799a9.81 9.81 0 0 0 3.622 5.082l8.975 6.828c2.047 1.588 2.834 4.129 2.047 6.511l-3.15 10.799c-.63 2.064-.63 4.287 0 6.193l3.307 10.957c.787 2.382-.157 5.082-2.047 6.51l-9.132 6.988zm2.834 3.811l8.975-6.828c3.622-2.7 5.039-7.464 3.78-11.751l-3.308-10.958a6.578 6.578 0 0 1 0-3.494l3.307-10.957c1.26-4.287-.157-9.051-3.779-11.75l-8.975-6.83c-.945-.793-1.575-1.746-2.047-2.858l-3.78-10.798c-1.416-4.288-5.353-7.146-9.919-7.305l-11.18-.159c-1.259 0-2.361-.318-3.306-1.112l-9.29-6.51C61.455-.5 56.417-.5 52.795 2.04l-9.29 6.51c-.945.636-2.047 1.112-3.306 1.112l-11.337.159c-4.41.159-8.346 3.017-9.92 7.305l-3.78 10.798c-.314 1.112-1.101 2.065-2.046 2.859L4.14 37.612C.676 40.312-.898 45.076.519 49.363L3.826 60.32a6.584 6.584 0 0 1 0 3.494L.519 74.772c-1.26 4.287.157 9.051 3.78 11.751l8.974 6.828c.945.794 1.575 1.747 2.047 2.859l3.78 10.798c1.416 4.288 5.353 7.146 9.919 7.305l11.337.159c1.26 0 2.362.317 3.307 1.111l9.29 6.511c1.732 1.27 3.936 1.906 6.14 1.906 2.205 0 4.252-.635 6.141-1.906l9.29-6.51c.945-.636 2.047-1.112 3.307-1.112l11.337-.159c4.409-.159 8.345-3.017 9.92-7.305l3.779-10.798c0-1.112.787-2.065 1.732-2.859z"/>
        <path fill="#00ADB5" d="M48.821 21.788h.49c1.467-.3 2.934-.6 4.565-.75 1.304-.15 2.282-1.348 2.119-2.547-.163-1.198-1.467-2.097-2.772-1.947-1.63.15-3.423.449-5.054.749-1.304.3-2.12 1.498-1.793 2.697.326 1.198 1.304 1.798 2.445 1.798M39.82 101.902c-1.291-.663-2.742-1.492-3.871-2.32-1.13-.663-2.58-.497-3.387.663-.807 1.16-.484 2.652.645 3.48 1.452.995 2.903 1.824 4.354 2.653.323.165.807.331 1.13.331.806 0 1.773-.497 2.096-1.326.645-1.326.161-2.818-.968-3.48M34.658 28.552c.484 0 .968-.155 1.29-.31 1.29-.772 2.581-1.544 3.871-2.162 1.13-.617 1.613-2.008.968-3.089s-2.097-1.544-3.225-.926c-1.452.772-2.904 1.544-4.355 2.47-1.129.773-1.452 2.163-.645 3.244.483.464 1.29.773 2.096.773M53.873 106.037c-1.467-.153-3.097-.458-4.563-.764-1.304-.305-2.608.459-2.934 1.68-.326 1.222.489 2.444 1.793 2.75 1.63.306 3.422.61 5.052.764h.326c1.141 0 2.282-.917 2.445-1.986.163-1.07-.652-2.291-2.119-2.444M18.322 76.794c-.33-1.255-1.818-1.882-3.141-1.569-1.323.314-1.984 1.725-1.654 2.98.496 1.568 1.158 3.136 1.819 4.547.331.941 1.323 1.412 2.315 1.412.33 0 .661 0 .992-.157 1.323-.47 1.819-1.882 1.323-3.136-.661-1.255-1.158-2.666-1.654-4.077M15.338 53.2c.165 0 .497.152.662.152.994 0 1.988-.61 2.32-1.678.496-1.372.993-2.745 1.656-4.117.496-1.22 0-2.44-1.326-3.05-1.325-.457-2.65 0-3.312 1.22-.663 1.525-1.325 3.05-1.822 4.575-.331 1.22.497 2.44 1.822 2.897M64.125 21.039c1.467.15 3.097.45 4.565.749h.489c1.141 0 2.12-.75 2.445-1.798.327-1.199-.489-2.398-1.793-2.697-1.63-.3-3.424-.6-5.054-.75-1.305-.15-2.609.75-2.772 1.948-.163 1.2.815 2.398 2.12 2.548M25.066 89.626c-.766-1.09-2.297-1.245-3.216-.467-1.072.778-1.226 2.179-.46 3.268.92 1.245 1.991 2.49 3.063 3.734.46.467 1.073.778 1.685.778.613 0 1.073-.155 1.532-.622.919-.934.919-2.334.153-3.268-1.072-1.089-1.991-2.334-2.757-3.423M21.842 38.605c.456.312.912.468 1.367.468.76 0 1.368-.312 1.824-.936.911-1.09 1.823-2.338 2.734-3.43.912-.934.76-2.493-.152-3.273-.911-.935-2.43-.779-3.19.156-1.063 1.247-2.127 2.494-3.039 3.741-.76 1.092-.608 2.495.456 3.274M14.332 68.382c1.19 0 2.233-1.223 2.084-2.446V61.81c0-1.223-.893-2.293-2.084-2.445-1.192 0-2.234.917-2.383 2.14V66.241l2.234-.153-2.234.153c.15 1.223 1.043 2.14 2.383 2.14M99.843 50.894c.33.93 1.323 1.706 2.315 1.706.165 0 .496 0 .661-.155 1.323-.31 1.985-1.706 1.654-2.947-.496-1.551-1.158-3.102-1.82-4.498-.495-1.241-1.983-1.706-3.306-1.241-1.323.465-1.819 1.861-1.323 3.102.827 1.24 1.323 2.637 1.819 4.033M68.69 105.271c-1.468.297-2.935.594-4.565.742-1.305.149-2.283 1.188-2.12 2.524.163 1.187 1.142 1.93 2.446 1.93h.326c1.63-.149 3.423-.446 5.054-.743 1.304-.296 2.12-1.484 1.793-2.672-.326-1.336-1.63-2.078-2.934-1.78M106.05 61.618c0-1.28-1.042-2.4-2.382-2.24-1.19 0-2.233 1.28-2.084 2.56V66.574c0 1.28.893 2.399 2.084 2.558h.15c1.19 0 2.233-.959 2.233-2.238V61.617zM96.197 89.159c-1.07-.778-2.445-.622-3.21.467-.916 1.245-1.834 2.334-2.75 3.423-.918.934-.765 2.49.152 3.268.459.467 1.07.622 1.529.622.61 0 1.222-.31 1.681-.778 1.07-1.245 2.14-2.49 3.056-3.734.765-.934.46-2.49-.458-3.268M102.82 75.224c-1.324-.308-2.646.308-3.142 1.541-.497 1.388-.992 2.775-1.654 4.162-.496 1.233 0 2.466 1.323 3.083.33.154.661.154.992.154.992 0 1.819-.463 2.315-1.388.661-1.54 1.323-3.082 1.819-4.624.33-1.233-.331-2.62-1.654-2.928M78.215 25.924a49.244 49.244 0 0 1 3.952 2.3c.474.328.79.328 1.265.328.79 0 1.58-.329 2.055-1.15.79-1.15.316-2.627-.632-3.449-1.423-.985-2.846-1.806-4.268-2.627-1.107-.657-2.53-.164-3.162 1.15-.949 1.313-.475 2.791.79 3.448M92.934 38.13c.46.629 1.072.943 1.838.943.46 0 .919-.157 1.378-.472 1.073-.785 1.226-2.198.46-3.298-.919-1.256-1.991-2.513-3.064-3.77a2.326 2.326 0 0 0-3.216-.156 2.474 2.474 0 0 0-.153 3.298c.919 1.1 1.838 2.199 2.757 3.455M82.17 99.52c-1.305.766-2.61 1.533-3.915 2.146-1.142.613-1.631 1.993-1.142 3.066.49.766 1.305 1.226 2.12 1.226.327 0 .817-.154 1.143-.307 1.468-.766 2.936-1.533 4.404-2.452 1.142-.767 1.469-2.146.653-3.219-.653-.766-2.12-1.073-3.263-.46"/>
    </g>
</svg>
