<svg xmlns="http://www.w3.org/2000/svg" xmlns:xlink="http://www.w3.org/1999/xlink" width="36" height="36" viewBox="0 0 36 36">
    <defs>
        <path id="a" d="M0 .238h35.76v35.515H0z"/>
    </defs>
    <g fill="none" fill-rule="evenodd">
        <path fill="#FFF" fill-rule="nonzero" d="M-293-78H33V42h-326z"/>
        <text fill="#9B9B9B" font-family="NotoSansCJKkr-Light, Noto Sans CJK KR" font-size="12" font-weight="300" letter-spacing=".333" transform="translate(-293 -78)">
            <tspan x="129" y="59">위치 예시 서울 특별시 서초구 강동대로</tspan> <tspan x="129" y="77"> 1307 호 24길</tspan>
        </text>
        <g transform="translate(0 .01)">
            <mask id="b" fill="#fff">
                <use xlink:href="#a"/>
            </mask>
            <path fill="#E31F20" d="M17.892.238c-1.532 0-3.089.197-4.638.609C3.718 3.385-1.942 13.12.614 22.59c2.14 7.932 9.362 13.163 17.255 13.163 1.532 0 3.089-.198 4.638-.61 9.536-2.538 15.195-12.273 12.64-21.743C33.007 5.469 25.785.237 17.892.238m0 .74c7.732 0 14.532 5.187 16.536 12.614a16.8 16.8 0 0 1-1.712 12.91c-2.287 3.936-5.981 6.751-10.401 7.927a17.287 17.287 0 0 1-4.446.585c-7.732 0-14.532-5.187-16.536-12.615-2.445-9.062 2.99-18.41 12.113-20.838a17.293 17.293 0 0 1 4.446-.584" mask="url(#b)"/>
        </g>
        <path fill="#E31F20" d="M7.4 20.05l2.685-.713 1.037 3.843c.523 1.939-.154 3.307-2.037 3.808-1.882.5-3.158-.347-3.68-2.287l-1.7-6.301c-.524-1.939.153-3.307 2.036-3.808 1.883-.5 3.158.347 3.681 2.286l.318 1.178-1.813.482-.35-1.299c-.234-.865-.706-1.092-1.317-.93-.61.163-.904.594-.67 1.46l1.765 6.543c.233.866.701 1.076 1.311.913.61-.162.91-.576.676-1.442l-.603-2.233-.871.232-.467-1.731zM14.153 22.503c.233.866.705 1.093 1.316.93.61-.162.904-.593.67-1.459l-1.765-6.544c-.233-.865-.705-1.092-1.315-.93-.61.163-.905.594-.672 1.46l1.766 6.543zm-3.65-5.912c-.524-1.94.206-3.32 2.089-3.822 1.882-.5 3.21.333 3.733 2.273l1.7 6.301c.523 1.939-.207 3.32-2.09 3.822-1.882.5-3.21-.334-3.732-2.273l-1.7-6.301zM21.055 20.666c.234.866.706 1.093 1.316.93.61-.162.905-.593.672-1.459l-1.766-6.543c-.233-.866-.706-1.093-1.316-.93-.61.162-.905.593-.671 1.458l1.765 6.544zm-3.65-5.912c-.523-1.939.206-3.32 2.089-3.821 1.882-.501 3.21.333 3.733 2.272l1.7 6.301c.523 1.939-.206 3.32-2.089 3.822-1.882.5-3.21-.334-3.733-2.273l-1.7-6.3zM26.064 11.188l2.335 8.656 1.08-.287c.611-.163.893-.572.66-1.438l-1.7-6.301c-.234-.866-.684-1.08-1.294-.918l-1.08.288zM23.68 9.967l3.033-.807c1.917-.51 3.143.295 3.666 2.234l1.654 6.128c.523 1.94-.133 3.246-2.05 3.756l-3.034.808-3.27-12.12zM6.504 11.48l1.232-.772-1.368-.502-.359-1.403-.903 1.137-1.455-.095.81 1.205-.54 1.345 1.403-.393 1.122.926zM11.313 29.304l-.78-1.226-.504 1.36-1.413.357 1.144.896-.094 1.445 1.212-.803 1.355.536-.396-1.395.932-1.114zM17.881 31.051l-1.29-.674.245 1.428-1.043 1.01 1.442.209.646 1.299.645-1.299 1.443-.208-1.044-1.011.246-1.428zM24.45 29.303l-1.458.057.932 1.114-.395 1.394 1.354-.536 1.213.804-.095-1.445 1.144-.897-1.412-.357-.506-1.358zM29.258 24.527l-1.233.774 1.368.502.36 1.403.902-1.137 1.455.094-.81-1.204.54-1.345-1.403.392-1.122-.925zM24.449 6.705l.778 1.225.505-1.36 1.413-.356-1.144-.897.094-1.445-1.212.804-1.354-.535.395 1.393-.932 1.114zM17.88 4.957l1.291.674-.247-1.427 1.044-1.01-1.442-.209-.646-1.3-.645 1.3-1.443.208 1.044 1.01-.246 1.428zM11.312 6.705l1.457-.057-.932-1.114.395-1.394-1.354.536-1.213-.804.095 1.445-1.144.897 1.412.357.506 1.358z"/>
    </g>
</svg>
