<svg xmlns="http://www.w3.org/2000/svg" xmlns:xlink="http://www.w3.org/1999/xlink" width="36" height="36" viewBox="0 0 36 36">
    <defs>
        <path id="a" d="M0 0h36v36H0z"/>
    </defs>
    <g fill="none" fill-rule="evenodd">
        <g>
            <mask id="b" fill="#fff">
                <use xlink:href="#a"/>
            </mask>
            <path fill="#00ADB5" d="M17.997 0C8.111.001.064 7.983 0 17.884-.064 27.825 7.943 35.936 17.884 36l.119.001C27.889 36 35.936 28.016 36 18.116 36.064 8.175 28.057.064 18.116 0h-.119M18 0v.75h.11a17.14 17.14 0 0 1 12.166 5.131 17.138 17.138 0 0 1 4.974 12.23 17.142 17.142 0 0 1-5.094 12.127 17.14 17.14 0 0 1-12.153 5.012h-.114a17.136 17.136 0 0 1-12.165-5.131A17.137 17.137 0 0 1 .75 17.889 17.142 17.142 0 0 1 5.844 5.762 17.142 17.142 0 0 1 17.997.75L18 0" mask="url(#b)"/>
        </g>
        <path fill="#00ADB5" d="M28.34 27.442a.626.626 0 0 1-.435-1.07.651.651 0 0 1 .884.005.631.631 0 0 1-.005.885.629.629 0 0 1-.444.18M21.21 31.226a.625.625 0 1 1 1.2-.349.625.625 0 0 1-1.2.349m-7.37.373a.626.626 0 1 1 .369-1.197.626.626 0 0 1-.368 1.197M7.54 27.308a.626.626 0 0 1-.436-1.07.649.649 0 0 1 .884.005.628.628 0 0 1-.006.885.619.619 0 0 1-.441.18M7.653 9.808a.627.627 0 0 1-.436-1.07.646.646 0 0 1 .883.006.63.63 0 0 1 .182.443.63.63 0 0 1-.629.621M21.793 5.597a.623.623 0 0 1-.415-.78.625.625 0 1 1 .415.78m-8.202-.473a.623.623 0 0 1 .425-.775.625.625 0 1 1-.425.775M28.453 9.94a.622.622 0 0 1-.621-.627.623.623 0 0 1 .185-.441.645.645 0 0 1 .883.005.624.624 0 0 1-.004.883.63.63 0 0 1-.443.18M6.217 15.071h-.036l-.06 9.212-1.798-.011.081-12.72 2.508.016 1.968 7.627h.036l.049-7.613 1.781.011-.082 12.72-2.053-.014zM13.953 21.408c-.005.909.392 1.256 1.028 1.26.636.005 1.038-.338 1.043-1.246l.045-6.869c.006-.909-.392-1.256-1.028-1.26-.636-.004-1.038.338-1.043 1.247l-.045 6.868zm-1.955-6.754c.013-2.035 1.092-3.191 3.055-3.178 1.962.012 3.027 1.182 3.014 3.217l-.043 6.614c-.013 2.036-1.093 3.191-3.055 3.18-1.962-.014-3.027-1.183-3.014-3.219l.043-6.614zM21.363 13.479l-.028 4.306.945.006c.636.004.984-.284.99-1.193l.012-1.908c.005-.908-.338-1.201-.974-1.205l-.945-.006zm3.917 1.351l-.011 1.654c-.013 2.035-1.002 3.137-3 3.124l-.945-.006-.031 4.779-1.999-.013.082-12.72 2.944.02c1.998.013 2.973 1.127 2.96 3.162zM28.19 17.066l2.744.018-.011 1.817-2.744-.018-.024 3.725 3.452.022-.011 1.817-5.452-.035.082-12.72 5.452.036-.012 1.817-3.453-.022z"/>
    </g>
</svg>
