<svg xmlns="http://www.w3.org/2000/svg" width="24" height="24" viewBox="0 0 24 24">
    <g fill="#000" fill-opacity=".54" fill-rule="evenodd">
        <path d="M10.27 20.605h6.456c1.463 0 2.786-.766 3.54-2.049.4-.681.417-1.505.045-2.204-.36-.677-.992-1.08-1.737-1.108a2.284 2.284 0 0 0-.087-.002h-5.853c-1.303 0-2.364 1.083-2.364 2.414v2.949zM16.726 22H7.49C4.462 22 2 19.484 2 16.392v-2.538c0-2.1 1.673-3.809 3.729-3.809h4.64a.69.69 0 0 1 .683.698.69.69 0 0 1-.683.697h-4.64c-1.303 0-2.363 1.083-2.363 2.414v2.538c0 2.323 1.85 4.213 4.123 4.213h1.415v-2.949c0-2.1 1.673-3.809 3.73-3.809h5.853c.045 0 .09 0 .136.002 1.222.045 2.302.732 2.89 1.838a3.653 3.653 0 0 1-.077 3.587C20.45 20.955 18.644 22 16.726 22zM7.503 3.393c-1.165 0-2.113.94-2.113 2.095 0 1.154.948 2.094 2.113 2.094s2.112-.94 2.112-2.094a2.106 2.106 0 0 0-2.112-2.095m0 5.557c-1.926 0-3.493-1.553-3.493-3.462 0-1.91 1.567-3.463 3.493-3.463s3.492 1.553 3.492 3.463c0 1.909-1.566 3.462-3.492 3.462"/>
        <path d="M16 7.374A2.63 2.63 0 0 0 13.374 10 2.63 2.63 0 0 0 16 12.626 2.63 2.63 0 0 0 18.626 10 2.63 2.63 0 0 0 16 7.374M16 14c-2.206 0-4-1.794-4-4s1.794-4 4-4 4 1.794 4 4-1.794 4-4 4"/>
    </g>
</svg>
