<svg xmlns="http://www.w3.org/2000/svg" xmlns:xlink="http://www.w3.org/1999/xlink" width="90" height="90" viewBox="0 0 90 90">
    <defs>
        <path id="a" d="M0 .594H88.79v88.79H0z"/>
    </defs>
    <g fill="none" fill-rule="evenodd">
        <g transform="translate(0 .023)">
            <mask id="b" fill="#fff">
                <use xlink:href="#a"/>
            </mask>
            <path fill="#BBB" d="M44.422.594c-3.801 0-7.667.492-11.515 1.523C9.231 8.461-4.82 32.8 1.523 56.477c5.314 19.83 23.246 32.907 42.844 32.907 3.802 0 7.669-.493 11.516-1.524C79.56 81.516 93.61 57.179 87.265 33.502 81.952 13.672 64.02.593 44.422.594m.002 1.85c19.198 0 36.08 12.968 41.056 31.536 2.94 10.975 1.431 22.437-4.25 32.276-5.68 9.84-14.851 16.877-25.826 19.818a42.644 42.644 0 0 1-11.037 1.46c-19.198 0-36.082-12.968-41.057-31.536-6.07-22.655 7.422-46.024 30.076-52.094a42.66 42.66 0 0 1 11.037-1.46h.001" mask="url(#b)"/>
        </g>
        <path fill="#BBB" d="M18.375 50.127l6.666-1.785 2.573 9.607c1.3 4.848-.382 8.268-5.056 9.52-4.674 1.252-7.84-.868-9.139-5.716L9.198 46c-1.3-4.848.382-8.266 5.056-9.519 4.675-1.253 7.84.867 9.14 5.715l.788 2.944-4.501 1.205-.87-3.247c-.58-2.163-1.752-2.73-3.267-2.324-1.515.406-2.246 1.483-1.667 3.647l4.384 16.359c.58 2.165 1.74 2.69 3.256 2.282 1.515-.405 2.258-1.44 1.677-3.604l-1.496-5.583-2.163.58-1.16-4.328zM35.14 56.258c.579 2.165 1.751 2.732 3.267 2.326 1.515-.406 2.246-1.484 1.666-3.648l-4.383-16.36c-.58-2.163-1.752-2.731-3.267-2.325-1.515.406-2.247 1.484-1.667 3.647l4.383 16.36zm-9.063-14.78c-1.3-4.848.512-8.302 5.186-9.555 4.674-1.252 7.97.833 9.269 5.681l4.221 15.753c1.3 4.847-.513 8.302-5.186 9.555-4.675 1.252-7.97-.834-9.27-5.681l-4.22-15.754zM52.278 51.666c.58 2.165 1.752 2.732 3.267 2.326 1.514-.407 2.246-1.484 1.667-3.648l-4.383-16.36c-.58-2.164-1.754-2.73-3.268-2.325-1.515.406-2.247 1.483-1.666 3.647l4.383 16.36zm-9.063-14.78c-1.3-4.848.512-8.302 5.186-9.555 4.674-1.252 7.97.833 9.269 5.681l4.221 15.753c1.299 4.848-.512 8.302-5.186 9.554-4.675 1.253-7.97-.833-9.27-5.68l-4.22-15.754zM64.714 27.97l5.798 21.64 2.683-.718c1.515-.406 2.215-1.43 1.635-3.594l-4.221-15.753c-.58-2.164-1.697-2.7-3.212-2.294l-2.683.719zm-5.92-3.053l7.53-2.018c4.76-1.275 7.805.74 9.104 5.586l4.105 15.32c1.299 4.85-.33 8.115-5.091 9.39l-7.531 2.019-8.117-30.297zM16.148 28.702l3.06-1.933-3.396-1.253-.892-3.509-2.243 2.842-3.612-.237 2.01 3.012-1.34 3.363 3.485-.981 2.784 2.313zM28.088 73.26l-1.934-3.064-1.254 3.397-3.509.894 2.843 2.24-.236 3.614 3.01-2.01 3.364 1.34-.982-3.485 2.313-2.785zM44.396 77.628l-3.205-1.685.612 3.569-2.592 2.528 3.582.52 1.603 3.247L46 82.56l3.581-.52-2.592-2.528.611-3.569zM60.706 73.257l-3.619.144 2.315 2.785-.982 3.483 3.362-1.339 3.012 2.01-.237-3.612 2.842-2.243-3.507-.892-1.255-3.396zM72.643 61.318l-3.061 1.934 3.396 1.254.893 3.508 2.241-2.84 3.612.234-2.01-3.01 1.34-3.363-3.484.98-2.785-2.312zM60.704 16.763l1.932 3.06 1.254-3.396 3.509-.891-2.842-2.243.234-3.613-3.01 2.01-3.362-1.338.98 3.483-2.312 2.785zM44.394 12.392l3.205 1.686-.612-3.568 2.592-2.527-3.582-.52-1.603-3.248-1.602 3.248-3.581.52 2.591 2.527-.611 3.568zM28.085 16.763l3.618-.143-2.314-2.785.981-3.484-3.362 1.34-3.012-2.01.236 3.613-2.84 2.242 3.507.892 1.255 3.396z"/>
    </g>
</svg>
